<?xml version="1.0" encoding="iso-8859-1"?>
<!-- Uploaded to: SVG Repo, www.svgrepo.com, Generator: SVG Repo Mixer Tools -->
<svg height="800px" width="800px" version="1.1" id="Layer_1" xmlns="http://www.w3.org/2000/svg" xmlns:xlink="http://www.w3.org/1999/xlink" 
	 viewBox="0 0 512.005 512.005" xml:space="preserve">
<g>
	<path style="fill:#F2E4DC;" d="M78.561,360.502c-1.757,0-3.26-1.314-3.496-3.054l-0.474-3.253l16.048-3.343
		c0.182-0.039,0.375-0.059,0.566-0.059c1.142,0,2.143,0.689,2.55,1.755l3.036,7.954H78.561z"/>
	<path style="fill:#F2E4DC;" d="M91.687,353.335l1.891,4.954H78.561c-0.652,0-1.216-0.487-1.305-1.139l-0.177-1.216l14.011-2.919
		C91.355,352.961,91.598,353.103,91.687,353.335z"/>
</g>
<path style="fill:#3D484A;" d="M511.514,222.241c0.609,1.681,0.654,3.528,0.122,5.242c-6.469,20.989-12.042,22.416-14.719,23.101
	c-1.582,0.398-5.098,0.698-8.272,0.654c-2.798,1.803-6.58,3.273-11.003,3.273c-4.235,0-9.067-1.36-14.188-5.065
	c-9.299-6.734-15.084-7.265-21.674-7.265c-0.299,0.011-1.415,0.188-2.223,0.31c-3.395,0.531-9.82,1.526-16.798,0.076
	c-1.006,8.78-3.25,24.34-8.15,45.672c0.409,5.462,8.67,27.801,17.008,47.859l5.95-0.464c10.616-0.818,20.414,5.242,24.416,15.085
	l5.176,12.749c1.038,2.554,0.741,5.463-0.807,7.753c-1.537,2.288-4.114,3.66-6.878,3.66h-44.233c-1.703,0-3.351-0.52-4.744-1.493
	c-20.646-14.399-40.816-37.255-59.936-67.932c-2.188-3.517-4.246-6.934-6.137-10.196c-0.011,0-0.022,0-0.044,0
	c-7.088-0.066-14-0.276-20.734-0.608l-17.162,39.954c0.044-0.011,0.088-0.011,0.132-0.011c9.344,0,18.014,5.949,21.088,15.182
	l4.733,14.188c0.84,2.532,0.409,5.308-1.15,7.464c-1.559,2.167-4.058,3.45-6.723,3.45h-33.175c-3.141,0-6.016-1.78-7.42-4.589
	l-17.693-35.387c-0.818-1.647-1.073-3.517-0.708-5.329l7.94-39.743c-20.845-3.041-39.058-7.022-54.34-11.125
	c-3.03,18.799-12.805,38.35-16.5,45.227l1.836,13.248l8.914-0.995c7.397-0.829,14.354,3.207,17.328,10.03l7.431,17.063
	c1.117,2.556,0.863,5.518-0.675,7.853c-1.526,2.344-4.135,3.749-6.934,3.749h-27.646c-2.201,0-4.313-0.874-5.861-2.433
	l-35.387-35.387c-1.559-1.547-2.433-3.66-2.433-5.861c0-23.233-6.082-39.633-10.34-48.269
	c-18.822,15.903-39.402,27.723-51.345,34.569c-2.1,1.205-3.926,2.256-5.408,3.141c-6.889,4.092-10.306,11.5-11.987,17.715
	l7.541-1.581c8.272-1.714,16.477,2.765,19.485,10.66l6.171,16.2c0.973,2.554,0.63,5.408-0.918,7.663
	c-1.547,2.245-4.103,3.583-6.834,3.583H78.557c-8.847,0-16.477-6.613-17.726-15.382l-7.663-53.666
	c-0.321-2.212,0.276-4.468,1.636-6.237c0.333-0.431,33.661-44.189,33.661-83.402v-15.227c-13.69,20.978-21.53,46.377-27.922,70.44
	c-11.268,42.41-28.21,57.813-40.573,69.059c-2.09,1.902-4.058,3.693-5.817,5.441c-1.615,1.626-3.738,2.433-5.861,2.433
	s-4.246-0.807-5.861-2.433c-3.241-3.24-3.241-8.482,0-11.722c2.035-2.035,4.136-3.959,6.37-5.983
	c11.456-10.417,25.699-23.366,35.707-61.064c5.916-22.273,13.734-48.015,26.872-70.11c14.608-24.56,33.496-41.082,57.769-50.492
	c37.609-14.597,102.024-3.759,144.642,3.417c15.526,2.61,28.928,4.866,35.287,4.866c14.265,0,18.534-1.847,21.641-3.196
	c2.532-1.095,5.408-2.333,10.063-2.333c5.706,0,10.55,2.212,14.431,3.981c2.809,1.283,5.453,2.488,7.265,2.323
	c1.769-0.166,6.082-1.15,10.638-2.201c12.485-2.853,31.118-7.11,49.077-7.387c1.36-2.422,3.008-4.668,5.009-6.58
	c2.411-2.311,5.983-2.942,9.046-1.615c1.415,0.619,11.368,5.186,17.826,14c21.774,4.711,35.652,17.87,39.356,25.29
	C500.025,190.282,511.049,220.936,511.514,222.241z M491.024,234.615c1.106-2.035,2.632-5.717,3.915-9.433
	c-2.842-7.774-11.258-30.499-16.344-40.672c-0.84-1.67-8.183-10.438-22.636-15.049c-0.852,0.718-1.869,1.283-3.019,1.615
	c-4.39,1.283-9.001-1.25-10.273-5.651c-1.017-3.494-4.158-6.602-7.21-8.869c-2.135,5.22-3.009,12.076-3.074,15.57
	c-0.088,4.523-3.782,8.128-8.294,8.128c-0.055,0-0.111,0-0.166,0c-4.578-0.088-8.216-3.881-8.128-8.46
	c0.022-0.861,0.133-4.39,0.896-8.967c-14.52,0.95-29.459,4.356-39.865,6.734c-5.761,1.327-9.929,2.277-12.772,2.543
	c-6.226,0.597-11.49-1.814-15.725-3.738c-2.798-1.283-5.441-2.488-7.542-2.488c-1.194,0-1.581,0.155-3.472,0.973
	c-4.202,1.814-10.539,4.556-28.232,4.556c-7.752,0-21.11-2.245-38.04-5.098c-40.827-6.878-102.532-17.261-135.895-4.312
	c-11.854,4.6-21.741,11.103-30.09,18.943v35.254c0,39.146-27.038,79.609-34.988,90.656l1.537,10.804
	c3.008-4.268,6.934-8.227,12.076-11.279c1.548-0.918,3.439-2.002,5.618-3.25c16.853-9.676,51.919-29.802,71.558-56.465
	c2.411-3.262,6.823-4.312,10.439-2.477c0.629,0.321,63.364,31.484,163.906,34.314c-4.501-8.691-6.989-14.32-7.177-14.73
	c-1.836-4.202,0.067-9.09,4.259-10.937c4.19-1.836,9.09,0.067,10.937,4.259c0.299,0.697,30.753,69.102,74.677,101.204h29.26
	l-0.542-1.327c-1.272-3.129-4.39-5.065-7.752-4.788l-11.921,0.929c-3.55,0.276-6.878-1.746-8.272-5.02
	c-22.625-53.167-20.91-60.555-20.357-62.988c7.087-30.709,8.493-49.254,8.637-51.443c-3.273-3.55-6.193-8.327-8.393-14.774
	c-1.494-4.335,0.818-9.046,5.153-10.527c4.324-1.494,9.046,0.818,10.527,5.153c4.877,14.188,12.85,14.144,22.769,12.595
	c1.77-0.276,3.295-0.509,4.777-0.509c10.505,0,19.418,1.747,31.406,10.428c4.611,3.33,6.591,1.239,6.679,1.15
	c1.967-2.178,4.92-3.141,7.785-2.564C488.315,234.681,489.752,234.67,491.024,234.615z M313.052,358.291l-1.083-3.273
	c-0.93-2.788-3.894-4.39-6.747-3.649l-10.626,2.776c-0.044,0.022-0.088,0.033-0.133,0.044l2.046,4.103L313.052,358.291
	L313.052,358.291z M286.689,338.64l19.396-45.13c-5.507-0.442-10.859-0.962-16.079-1.559l-7.619,38.085L286.689,338.64z
	 M217.906,358.291l-2.366-5.452c-0.055-0.112-0.177-0.177-0.288-0.166l-13.061,1.45l4.17,4.169h11.545V358.291z M186.888,318.225
	c0.144-0.253,13.701-24.151,16.2-44.177c-15.471-4.821-26.662-9.355-33.075-12.176c-2.688,3.251-5.54,6.392-8.526,9.422
	c4.932,8.769,13.635,28.11,14.298,56.43l12.374,12.363l-2.3-16.599C185.605,321.666,185.97,319.819,186.888,318.225z
	 M93.578,358.291l-1.891-4.954c-0.088-0.232-0.332-0.376-0.597-0.32l-14.011,2.919l0.177,1.216c0.088,0.652,0.652,1.139,1.305,1.139
	h15.017V358.291z"/>
<g>
	<path style="fill:#F2E4DC;" d="M417.173,360.502l-0.582-0.427c-44.152-32.268-75.113-101.437-75.405-102.12
		c-0.964-2.188-3.156-3.616-5.577-3.616c-0.84,0-1.661,0.173-2.438,0.514c-3.062,1.349-4.462,4.95-3.118,8.025l0.067,0.149
		c1.871,4.157,4.374,9.288,7.047,14.449l1.726,3.334l-3.753-0.106c-101.52-2.857-164.226-34.238-164.847-34.554
		c-0.858-0.436-1.783-0.658-2.745-0.658c-1.929,0-3.764,0.927-4.911,2.478c-19.905,27.024-55.236,47.307-72.215,57.056l-0.327,0.188
		c-2.039,1.17-3.816,2.188-5.285,3.06c-4.438,2.633-8.271,6.217-11.396,10.651l-3.211,4.559l-2.448-17.207l0.521-0.722
		c8.11-11.27,34.572-51.021,34.572-89.364v-36.21l0.698-0.656c8.958-8.411,19.322-14.936,30.803-19.392
		c10.809-4.196,25.497-6.323,43.651-6.323c30.989,0,67.067,6.078,93.412,10.515c16.801,2.832,30.071,5.068,37.673,5.068
		c17.217,0,23.31-2.63,27.343-4.369c1.953-0.846,2.679-1.16,4.361-1.16c2.599,0,5.448,1.307,8.464,2.689
		c3.775,1.716,7.986,3.629,12.859,3.629c0.578,0,1.161-0.028,1.732-0.083c2.775-0.259,7.061-1.246,12.487-2.497
		c10.146-2.319,25.473-5.821,40.217-6.786l2.786-0.181l-0.459,2.751c-0.689,4.139-0.835,7.436-0.866,8.66
		c-0.064,3.344,2.609,6.128,5.96,6.194h0.123c3.29,0,6.018-2.673,6.082-5.959c0.059-3.062,0.809-10.425,3.239-16.364l1.079-2.637
		l2.287,1.699c2.967,2.203,6.764,5.73,8.014,10.025c0.749,2.587,3.145,4.391,5.83,4.391c0.573,0,1.143-0.082,1.699-0.245
		c0.821-0.237,1.564-0.634,2.215-1.182l0.934-0.787l1.164,0.372c14.366,4.585,22.574,13.451,23.939,16.162
		c5.005,10.012,13.168,31.943,16.446,40.908l0.27,0.738l-0.255,0.743c-1.339,3.879-2.895,7.622-4.063,9.768l-0.597,1.099
		l-1.25,0.054c-0.668,0.029-1.379,0.046-2.01,0.046c-0.748,0-1.308-0.023-1.712-0.071l-0.092-0.01l-0.09-0.019
		c-0.398-0.08-0.804-0.121-1.209-0.121c-1.712,0-3.352,0.729-4.5,2l-0.077,0.081c-0.406,0.41-1.582,1.377-3.627,1.377
		c-1.81,0-3.799-0.773-5.911-2.298c-11.511-8.335-20.055-10.009-30.111-10.009c-1.35,0-2.849,0.234-4.437,0.482
		c-2.238,0.349-4.869,0.708-7.4,0.708c-8.8,0-14.291-4.554-17.802-14.768c-0.842-2.463-3.149-4.115-5.741-4.115
		c-0.668,0-1.331,0.112-1.971,0.333c-1.546,0.527-2.788,1.621-3.501,3.08c-0.711,1.455-0.812,3.102-0.284,4.636
		c1.943,5.689,4.609,10.396,7.929,13.995l0.642,0.697l-0.062,0.947c-0.133,2.024-1.505,20.673-8.689,51.796
		c-1.724,7.579,10.054,37.695,20.237,61.625c0.958,2.247,3.152,3.7,5.591,3.7c0.158,0,0.316-0.006,0.475-0.019l11.921-0.929
		c0.264-0.022,0.536-0.032,0.807-0.032c4.037,0,7.635,2.431,9.164,6.194l1.786,4.371h-33.28V360.502z"/>
	<path style="fill:#F2E4DC;" d="M494.938,225.182c-1.283,3.716-2.809,7.398-3.915,9.433c-1.272,0.055-2.709,0.066-3.373-0.011
		c-2.865-0.575-5.818,0.387-7.785,2.564c-0.088,0.088-2.068,2.18-6.679-1.15c-11.988-8.681-20.9-10.428-31.406-10.428
		c-1.482,0-3.008,0.232-4.777,0.509c-9.919,1.548-17.892,1.592-22.769-12.595c-1.482-4.335-6.203-6.647-10.527-5.153
		c-4.335,1.482-6.647,6.193-5.153,10.527c2.201,6.447,5.12,11.224,8.393,14.774c-0.144,2.19-1.548,20.734-8.637,51.443
		c-0.553,2.433-2.268,9.821,20.357,62.988c1.394,3.274,4.723,5.297,8.272,5.02l11.921-0.929c3.362-0.276,6.479,1.659,7.752,4.788
		l0.542,1.327h-29.26c-43.925-32.102-74.379-100.509-74.677-101.204c-1.847-4.191-6.747-6.094-10.937-4.259
		c-4.191,1.847-6.094,6.735-4.259,10.937c0.188,0.409,2.676,6.039,7.177,14.73c-100.542-2.831-163.276-33.993-163.906-34.314
		c-3.616-1.835-8.029-0.785-10.439,2.477c-19.64,26.662-54.705,46.789-71.558,56.465c-2.178,1.25-4.069,2.332-5.618,3.25
		c-5.142,3.052-9.068,7.011-12.076,11.279l-1.537-10.804c7.95-11.047,34.988-51.51,34.988-90.656v-35.254
		c8.349-7.84,18.235-14.343,30.09-18.943c33.363-12.949,95.068-2.566,135.895,4.312c16.931,2.853,30.29,5.098,38.041,5.098
		c17.693,0,24.03-2.742,28.232-4.556c1.891-0.818,2.277-0.973,3.472-0.973c2.101,0,4.744,1.205,7.542,2.488
		c4.235,1.924,9.499,4.335,15.725,3.738c2.842-0.265,7.011-1.216,12.772-2.543c10.406-2.378,25.346-5.783,39.865-6.734
		c-0.763,4.578-0.874,8.106-0.896,8.967c-0.088,4.579,3.55,8.371,8.128,8.46c0.056,0,0.112,0,0.166,0
		c4.512,0,8.205-3.605,8.294-8.128c0.066-3.494,0.94-10.351,3.074-15.57c3.052,2.267,6.193,5.373,7.21,8.869
		c1.272,4.401,5.883,6.935,10.273,5.651c1.15-0.332,2.167-0.897,3.019-1.615c14.452,4.611,21.796,13.381,22.636,15.049
		C483.68,194.683,492.096,217.407,494.938,225.182z"/>
</g>
<g>
	<path style="fill:#F1D0BA;" d="M295.139,360.502l-3.892-7.807l2.543-0.619l0.032-0.017l10.839-2.831
		c0.646-0.167,1.308-0.252,1.968-0.252c3.382,0,6.37,2.146,7.436,5.341l2.047,6.185L295.139,360.502L295.139,360.502z"/>
	<path style="fill:#F1D0BA;" d="M311.968,355.017l1.083,3.273h-16.543l-2.046-4.103c0.044-0.011,0.088-0.023,0.133-0.044
		l10.626-2.776C308.075,350.627,311.038,352.23,311.968,355.017z"/>
	<path style="fill:#F1D0BA;" d="M280.069,330.346l8.167-40.824l2.021,0.231c5.177,0.593,10.562,1.115,16.005,1.553l3.071,0.247
		l-22.494,52.336L280.069,330.346z"/>
	<path style="fill:#F1D0BA;" d="M306.085,293.511l-19.396,45.13l-4.302-8.603l7.619-38.085
		C295.226,292.549,300.577,293.068,306.085,293.511z"/>
	<path style="fill:#F1D0BA;" d="M205.446,360.502l-8.073-8.07l17.757-1.971l0.146-0.001c0.944,0,1.825,0.548,2.245,1.398
		l3.755,8.644L205.446,360.502L205.446,360.502z"/>
	<path style="fill:#F1D0BA;" d="M215.54,352.839l2.366,5.452h-11.544l-4.17-4.169l13.061-1.45
		C215.363,352.662,215.484,352.727,215.54,352.839z"/>
	<path style="fill:#F1D0BA;" d="M173.594,328.664l-0.021-0.887c-0.648-27.672-9.059-46.587-14.015-55.399l-0.816-1.452l1.169-1.184
		c2.991-3.035,5.817-6.157,8.397-9.28l1.066-1.288l1.53,0.672c6.596,2.902,17.648,7.354,32.842,12.09l1.766,0.55l-0.229,1.836
		c-2.518,20.171-15.901,43.985-16.469,44.99c-0.681,1.18-0.949,2.55-0.764,3.872l3.204,23.122L173.594,328.664z"/>
	<path style="fill:#F1D0BA;" d="M203.088,274.049c-2.5,20.025-16.057,43.924-16.2,44.177c-0.918,1.594-1.283,3.439-1.028,5.265
		l2.3,16.599l-12.374-12.363c-0.663-28.32-9.366-47.662-14.298-56.43c2.986-3.03,5.838-6.171,8.526-9.422
		C176.426,264.693,187.617,269.227,203.088,274.049z"/>
</g>
</svg>